<?xml version="1.0" encoding="UTF-8" standalone="no"?>
<svg
   style="background-color: rgb(255, 255, 255);"
   width="131px"
   height="130px">
  <g
     transform="matrix(0.99218809,0,0,1.0000306,0.0038682,2.4980434)"
     id="g6">
    <rect
       x="1"
       y="0"
       width="127"
       height="127"
       pointer-events="none"
       id="rect8"
       style="fill:#ffffff;stroke:#fafafa" />
    <path
       d="M 11,110 Q 11,76 29,43 47,10 72,40 97,70 128,76.2"
       stroke-miterlimit="10"
       pointer-events="none"
       id="path10"
       style="fill:none;stroke:#050505;stroke-width:2;stroke-miterlimit:10" />
    <path
       d="m 1,45 70,0"
       stroke-miterlimit="10"
       pointer-events="none"
       id="path12"
       style="fill:none;stroke:#ff0000;stroke-width:2;stroke-miterlimit:10" />
    <path
       d="m 71,46 q 10,-30 10,-10 0,20 5,0 5,-20 5,0 0,20 5,0 5,-20 5,-10 0,10 15.53,10"
       stroke-miterlimit="10"
       pointer-events="none"
       id="path14"
       style="fill:none;stroke:#ff0000;stroke-width:2;stroke-miterlimit:10" />
    <path
       d="m 110.76,38.67 8,-2.67 -8,-2.67"
       stroke-miterlimit="10"
       pointer-events="none"
       id="path16"
       style="fill:none;stroke:#ff0000;stroke-width:2;stroke-miterlimit:10" />
  </g>
</svg>
