<?xml version="1.0" encoding="UTF-8" standalone="no"?>
<svg
   style="background-color: rgb(255, 255, 255);"
   width="127px"
   height="127px"
   version="1.1"
   id="svg3186"
   inkscape:version="0.48.4 r9939">
  <g
     transform="matrix(1.1561738,0,0,1.1561738,-7.2260862,-8.2260866)"
     id="g3190">
    <rect
       x="6.25"
       y="6.25"
       width="110.71"
       height="110.71"
       pointer-events="none"
       id="rect3192"
       style="fill:#ffffff;stroke:none" />
    <path
       d="M 61.61,8.04 73.25,49.96 115.18,61.61 73.25,73.25 61.61,115.18 49.96,73.25 8.04,61.61 49.96,49.96 z"
       stroke-miterlimit="10"
       pointer-events="none"
       id="path3194"
       inkscape:connector-curvature="0"
       style="fill:#3d3d3d;stroke:#000000;stroke-miterlimit:10" />
    <path
       d="M 17.44,112.09 11.13,105.77 27.9,89 21.59,82.68 50,73.21 40.53,101.62 34.22,95.31 z"
       stroke-miterlimit="10"
       pointer-events="none"
       id="path3196"
       inkscape:connector-curvature="0"
       style="fill:#fff2cc;stroke:#d6b656;stroke-miterlimit:10" />
    <path
       d="m 75.48,111.19 -6.32,-6.31 16.78,-16.77 -6.31,-6.32 28.41,-9.47 -9.47,28.41 -6.32,-6.31 z"
       stroke-miterlimit="10"
       transform="matrix(-1,0,0,1,180.72,0)"
       pointer-events="none"
       id="path3198"
       inkscape:connector-curvature="0"
       style="fill:#fff2cc;stroke:#d6b656;stroke-miterlimit:10" />
    <path
       d="M 17.44,53.16 11.13,46.84 27.9,30.07 21.59,23.76 50,14.29 40.53,42.7 34.22,36.38 z"
       stroke-miterlimit="10"
       transform="matrix(1,0,0,-1,0,64.64)"
       pointer-events="none"
       id="path3200"
       inkscape:connector-curvature="0"
       style="fill:#fff2cc;stroke:#d6b656;stroke-miterlimit:10" />
    <path
       d="M 76.37,53.16 70.06,46.84 86.83,30.07 80.52,23.76 108.93,14.29 99.46,42.7 93.14,36.38 z"
       stroke-miterlimit="10"
       transform="matrix(-1,0,0,-1,182.5,64.64)"
       pointer-events="none"
       id="path3202"
       inkscape:connector-curvature="0"
       style="fill:#fff2cc;stroke:#d6b656;stroke-miterlimit:10" />
    <g
       transform="matrix(0.89285714,0,0,0.89285714,54.5,47.5)"
       id="g3204">
        <text
           x="8"
           y="23"
           font-size="22px"
           id="text3210"
           style="font-size:22px;text-anchor:middle;fill:#fcfcfc;font-family:Helvetica">E</text>
    </g>
  </g>
</svg>
